<svg xmlns="http://www.w3.org/2000/svg" xmlns:xlink="http://www.w3.org/1999/xlink" viewBox="0 0 75.43 75.21"><defs><style>.cls-1{fill:none;}.cls-2{clip-path:url(#clip-path);}.cls-3{fill:#080913;}</style><clipPath id="clip-path" transform="translate(-28.01 -38.65)"><rect class="cls-1" width="147.07" height="174.08"/></clipPath></defs><title>Asset 3</title><g id="Layer_2" data-name="Layer 2"><g id="Layer_1-2" data-name="Layer 1"><g class="cls-2"><path class="cls-3" d="M65.78,98.23a22,22,0,1,1,22.06-22A22,22,0,0,1,65.78,98.23Zm30-21.5a1.25,1.25,0,0,1,.61-1l6.59-3.3a1,1,0,0,0,.48-.94l-1.51-7a1,1,0,0,0-.84-.68l-7.49-.48a1.3,1.3,0,0,1-1-.63l-1-1.87a1.27,1.27,0,0,1,0-1.14L95.4,53.4a1,1,0,0,0-.09-1.06l-5.1-5.19A1,1,0,0,0,89.15,47l-6.52,3.61a1.3,1.3,0,0,1-1.14,0l-1.76-1a1.26,1.26,0,0,1-.6-1l-.27-7.45a1,1,0,0,0-.65-.85l-7.06-1.69a1,1,0,0,0-1,.47l-3.51,6.51c-.17.31-.46.57-.64.57h-.17c-1,0-2.35.1-2.35.1a1.28,1.28,0,0,1-1-.49L58.2,39.66a1,1,0,0,0-1-.36l-6.74,2.27a1,1,0,0,0-.56.9l.58,7.32a1.23,1.23,0,0,1-.51,1l-2.14,1.48a1.28,1.28,0,0,1-1.14.14l-6.94-2.87a1,1,0,0,0-1.05.24l-4.32,5.35a1,1,0,0,0,0,1.06L38.81,62a1.21,1.21,0,0,1,.12,1.12L37.73,66a1.29,1.29,0,0,1-.88.73l-7.37,1.33a1,1,0,0,0-.75.76A60.51,60.51,0,0,0,28,76.06v0a5,5,0,0,0,.62.25l6.87,2.5a1.22,1.22,0,0,1,.71.88l.65,3.51a1.26,1.26,0,0,1-.34,1.09l-5.44,5.06a1,1,0,0,0-.21,1l3,5.75a1,1,0,0,0,1,.42L42,95a1.27,1.27,0,0,1,1.08.35l2.64,2.75A1.24,1.24,0,0,1,46,99.16l-1.82,7.14a1,1,0,0,0,.39,1l5.6,3.14a1,1,0,0,0,1-.17L56.42,105a1.26,1.26,0,0,1,1.1-.3l3.69.82a1.21,1.21,0,0,1,.86.74l2.31,6.94a1,1,0,0,0,.87.64h.62a58.56,58.56,0,0,0,5.87-.48,1,1,0,0,0,.79-.73l1.54-7.27a1.24,1.24,0,0,1,.76-.85l3.24-1.23a1.24,1.24,0,0,1,1.12.15l5.7,4.58a1,1,0,0,0,1.06,0l5.34-4a1,1,0,0,0,.27-1l-2.67-7a1.3,1.3,0,0,1,.18-1.13l1.76-2.4a1.26,1.26,0,0,1,1-.48l7.29.79a1,1,0,0,0,.91-.54l2.39-6.51a1,1,0,0,0-.34-1l-6-4.46a1.26,1.26,0,0,1-.46-1l.15-2.48Z" transform="translate(-28.01 -38.65)"/></g></g></g></svg>